# MagicaVoxel @ Ephtracy

# group
o 

# material
mtllib vikingo.mtl
usemtl palette

# normals
vn -1 0 0
vn 1 0 0
vn 0 0 1
vn 0 0 -1
vn 0 -1 0
vn 0 1 0

# texcoords
vt 0.0332031 0.5
vt 0.0410156 0.5
vt 0.0605469 0.5
vt 0.634766 0.5
vt 0.806641 0.5
vt 0.876953 0.5
vt 0.994141 0.5

# verts
v 0.4 1.5 -1
v 0.4 1.5 -1.1
v 0.4 1.6 -1
v 0.4 1.6 -1.1
v 0.6 1.7 -0.9
v 0.6 1.7 -1
v 0.6 1.8 -0.9
v 0.6 1.8 -1
v 0.6 1.8 -1.1
v 0.6 1.8 -1.2
v 0.6 1.8 -1.4
v 0.6 1.9 -0.9
v 0.6 1.9 -1
v 0.6 1.9 -1.1
v 0.6 1.9 -1.2
v 0.6 1.9 -1.3
v 0.6 1.9 -1.4
v 0.6 2 -1.2
v 0.6 2 -1.3
v 0.6 2.1 -0.9
v 0.6 2.1 -1
v 0.6 2.1 -1.1
v 0.6 2.1 -1.2
v 0.6 2.2 -1
v 0.6 2.2 -1.1
v 0.7 1.3 -0.9
v 0.7 1.3 -1.2
v 0.7 1.4 -0.9
v 0.7 1.4 -1.2
v 0.7 1.5 -1
v 0.7 1.5 -1.1
v 0.7 1.6 -0.8
v 0.7 1.6 -0.9
v 0.7 1.6 -1
v 0.7 1.6 -1.1
v 0.7 1.6 -1.2
v 0.7 1.6 -1.3
v 0.7 1.7 -0.9
v 0.7 1.7 -1
v 0.7 1.8 -0.9
v 0.7 1.8 -1
v 0.7 1.8 -1.1
v 0.7 1.8 -1.2
v 0.7 1.8 -1.3
v 0.7 1.9 -0.9
v 0.7 1.9 -1
v 0.7 1.9 -1.1
v 0.7 1.9 -1.2
v 0.7 2 -1.2
v 0.7 2 -1.3
v 0.7 2.1 -0.8
v 0.7 2.1 -0.9
v 0.7 2.1 -1
v 0.7 2.1 -1.1
v 0.7 2.1 -1.2
v 0.7 2.2 -0.9
v 0.7 2.2 -1
v 0.7 2.2 -1.1
v 0.7 2.2 -1.2
v 0.7 2.2 -1.3
v 0.7 2.3 -1
v 0.7 2.3 -1.2
v 0.8 1 -1
v 0.8 1 -1.1
v 0.8 1.2 -0.9
v 0.8 1.2 -1
v 0.8 1.2 -1.1
v 0.8 1.2 -1.2
v 0.8 1.3 -0.8
v 0.8 1.3 -0.9
v 0.8 1.3 -1.2
v 0.8 1.3 -1.3
v 0.8 1.4 -0.8
v 0.8 1.4 -0.9
v 0.8 1.4 -1.2
v 0.8 1.4 -1.3
v 0.8 1.5 -0.8
v 0.8 1.5 -0.9
v 0.8 1.6 -0.8
v 0.8 1.6 -0.9
v 0.8 1.7 -1.3
v 0.8 1.7 -1.4
v 0.8 2.1 -0.8
v 0.8 2.1 -0.9
v 0.8 2.2 -0.8
v 0.8 2.2 -0.9
v 0.8 2.2 -1
v 0.8 2.2 -1.2
v 0.8 2.2 -1.3
v 0.8 2.2 -1.4
v 0.8 2.3 -0.9
v 0.8 2.3 -1
v 0.8 2.3 -1.2
v 0.8 2.3 -1.3
v 0.8 2.4 -1
v 0.8 2.4 -1.2
v 0.9 1.8 -1.4
v 0.9 1.8 -1.5
v 0.9 2.1 -1.4
v 0.9 2.1 -1.5
v 1.1 1 -1
v 1.1 1 -1.1
v 1.1 1.2 -1
v 1.1 1.2 -1.1
v 1.1 1.5 -0.8
v 1.1 1.5 -0.9
v 1.1 1.6 -0.9
v 1.1 1.7 -0.8
v 1.1 1.7 -0.9
v 1.2 1.8 -0.8
v 1.2 1.8 -0.9
v 1.2 1.9 -0.9
v 1.2 2 -0.8
v 1.2 2 -0.9
v 1.3 1.8 -1.3
v 1.3 1.8 -1.4
v 1.3 1.9 -1.3
v 1.3 1.9 -1.4
v 0.7 1.8 -1.3
v 0.7 1.8 -1.4
v 0.7 1.9 -1.3
v 0.7 1.9 -1.4
v 0.8 1.8 -0.8
v 0.8 1.8 -0.9
v 0.8 1.9 -0.9
v 0.8 2 -0.8
v 0.8 2 -0.9
v 0.9 1 -1
v 0.9 1 -1.1
v 0.9 1.2 -1
v 0.9 1.2 -1.1
v 0.9 1.5 -0.8
v 0.9 1.5 -0.9
v 0.9 1.6 -0.9
v 0.9 1.7 -0.8
v 0.9 1.7 -0.9
v 1.1 1.8 -1.4
v 1.1 1.8 -1.5
v 1.1 2.1 -1.4
v 1.1 2.1 -1.5
v 1.2 1 -1
v 1.2 1 -1.1
v 1.2 1.2 -0.9
v 1.2 1.2 -1
v 1.2 1.2 -1.1
v 1.2 1.2 -1.2
v 1.2 1.3 -0.8
v 1.2 1.3 -0.9
v 1.2 1.3 -1.2
v 1.2 1.3 -1.3
v 1.2 1.4 -0.8
v 1.2 1.4 -0.9
v 1.2 1.4 -1.2
v 1.2 1.4 -1.3
v 1.2 1.5 -0.8
v 1.2 1.5 -0.9
v 1.2 1.6 -0.8
v 1.2 1.6 -0.9
v 1.2 1.7 -1.3
v 1.2 1.7 -1.4
v 1.2 2.1 -0.8
v 1.2 2.1 -0.9
v 1.2 2.2 -0.8
v 1.2 2.2 -0.9
v 1.2 2.2 -1
v 1.2 2.2 -1.2
v 1.2 2.2 -1.3
v 1.2 2.2 -1.4
v 1.2 2.3 -0.9
v 1.2 2.3 -1
v 1.2 2.3 -1.2
v 1.2 2.3 -1.3
v 1.2 2.4 -1
v 1.2 2.4 -1.2
v 1.3 1.3 -0.9
v 1.3 1.3 -1.2
v 1.3 1.4 -0.9
v 1.3 1.4 -1.2
v 1.3 1.5 -1
v 1.3 1.5 -1.1
v 1.3 1.6 -0.8
v 1.3 1.6 -0.9
v 1.3 1.6 -1
v 1.3 1.6 -1.1
v 1.3 1.6 -1.2
v 1.3 1.6 -1.3
v 1.3 1.7 -0.9
v 1.3 1.7 -1
v 1.3 1.8 -0.9
v 1.3 1.8 -1
v 1.3 1.8 -1.1
v 1.3 1.8 -1.2
v 1.3 1.8 -1.3
v 1.3 1.9 -0.9
v 1.3 1.9 -1
v 1.3 1.9 -1.1
v 1.3 1.9 -1.2
v 1.3 2 -1.2
v 1.3 2 -1.3
v 1.3 2.1 -0.8
v 1.3 2.1 -0.9
v 1.3 2.1 -1
v 1.3 2.2 -0.9
v 1.3 2.2 -1
v 1.3 2.2 -1.2
v 1.3 2.2 -1.3
v 1.3 2.3 -1
v 1.3 2.3 -1.2
v 1.4 1.7 -0.9
v 1.4 1.7 -1
v 1.4 1.8 -0.9
v 1.4 1.8 -1
v 1.4 1.8 -1.1
v 1.4 1.8 -1.2
v 1.4 1.8 -1.4
v 1.4 1.9 -0.9
v 1.4 1.9 -1
v 1.4 1.9 -1.1
v 1.4 1.9 -1.2
v 1.4 1.9 -1.3
v 1.4 1.9 -1.4
v 1.4 2 -1.2
v 1.4 2 -1.3
v 1.4 2.1 -0.9
v 1.4 2.1 -1
v 1.4 2.2 -1
v 1.4 2.2 -1.2
v 1.6 1.5 -1
v 1.6 1.5 -1.1
v 1.6 1.6 -1
v 1.6 1.6 -1.1
v 0.7 1.6 -0.8
v 0.7 2.1 -0.8
v 0.8 1.3 -0.8
v 0.8 1.4 -0.8
v 0.8 1.5 -0.8
v 0.8 1.6 -0.8
v 0.8 1.8 -0.8
v 0.8 2 -0.8
v 0.8 2.1 -0.8
v 0.8 2.2 -0.8
v 0.9 1.5 -0.8
v 0.9 1.7 -0.8
v 1.1 1.5 -0.8
v 1.1 1.7 -0.8
v 1.2 1.3 -0.8
v 1.2 1.4 -0.8
v 1.2 1.5 -0.8
v 1.2 1.6 -0.8
v 1.2 1.8 -0.8
v 1.2 2 -0.8
v 1.2 2.1 -0.8
v 1.2 2.2 -0.8
v 1.3 1.6 -0.8
v 1.3 2.1 -0.8
v 0.6 1.7 -0.9
v 0.6 1.8 -0.9
v 0.6 1.9 -0.9
v 0.6 2.1 -0.9
v 0.7 1.3 -0.9
v 0.7 1.4 -0.9
v 0.7 1.6 -0.9
v 0.7 1.7 -0.9
v 0.7 1.8 -0.9
v 0.7 1.9 -0.9
v 0.7 2.1 -0.9
v 0.7 2.2 -0.9
v 0.8 1.2 -0.9
v 0.8 1.3 -0.9
v 0.8 1.4 -0.9
v 0.8 1.5 -0.9
v 0.8 1.6 -0.9
v 0.8 1.8 -0.9
v 0.8 1.9 -0.9
v 0.8 2 -0.9
v 0.8 2.1 -0.9
v 0.8 2.2 -0.9
v 0.8 2.3 -0.9
v 0.9 1.5 -0.9
v 0.9 1.6 -0.9
v 0.9 1.7 -0.9
v 0.9 1.8 -0.9
v 0.9 1.9 -0.9
v 1.1 1.5 -0.9
v 1.1 1.6 -0.9
v 1.1 1.7 -0.9
v 1.1 1.8 -0.9
v 1.1 1.9 -0.9
v 1.2 1.2 -0.9
v 1.2 1.3 -0.9
v 1.2 1.4 -0.9
v 1.2 1.5 -0.9
v 1.2 1.6 -0.9
v 1.2 1.8 -0.9
v 1.2 1.9 -0.9
v 1.2 2 -0.9
v 1.2 2.1 -0.9
v 1.2 2.2 -0.9
v 1.2 2.3 -0.9
v 1.3 1.3 -0.9
v 1.3 1.4 -0.9
v 1.3 1.6 -0.9
v 1.3 1.7 -0.9
v 1.3 1.8 -0.9
v 1.3 1.9 -0.9
v 1.3 2.1 -0.9
v 1.3 2.2 -0.9
v 1.4 1.7 -0.9
v 1.4 1.8 -0.9
v 1.4 1.9 -0.9
v 1.4 2.1 -0.9
v 0.4 1.5 -1
v 0.4 1.6 -1
v 0.6 1.8 -1
v 0.6 1.9 -1
v 0.6 2.1 -1
v 0.6 2.2 -1
v 0.7 1.5 -1
v 0.7 1.6 -1
v 0.7 1.8 -1
v 0.7 1.9 -1
v 0.7 2.1 -1
v 0.7 2.2 -1
v 0.7 2.3 -1
v 0.8 1 -1
v 0.8 1.2 -1
v 0.8 2.2 -1
v 0.8 2.3 -1
v 0.8 2.4 -1
v 0.9 1 -1
v 0.9 1.2 -1
v 1.1 1 -1
v 1.1 1.2 -1
v 1.2 1 -1
v 1.2 1.2 -1
v 1.2 2.2 -1
v 1.2 2.3 -1
v 1.2 2.4 -1
v 1.3 1.5 -1
v 1.3 1.6 -1
v 1.3 1.8 -1
v 1.3 1.9 -1
v 1.3 2.1 -1
v 1.3 2.2 -1
v 1.3 2.3 -1
v 1.4 1.8 -1
v 1.4 1.9 -1
v 1.4 2.1 -1
v 1.4 2.2 -1
v 1.6 1.5 -1
v 1.6 1.6 -1
v 0.6 1.8 -1.2
v 0.6 1.9 -1.2
v 0.7 1.8 -1.2
v 0.7 1.9 -1.2
v 1.3 1.8 -1.2
v 1.3 1.9 -1.2
v 1.4 1.8 -1.2
v 1.4 1.9 -1.2
v 0.6 1.7 -1
v 0.6 1.8 -1
v 0.7 1.7 -1
v 0.7 1.8 -1
v 1.3 1.7 -1
v 1.3 1.8 -1
v 1.4 1.7 -1
v 1.4 1.8 -1
v 0.4 1.5 -1.1
v 0.4 1.6 -1.1
v 0.6 1.8 -1.1
v 0.6 1.9 -1.1
v 0.6 2.1 -1.1
v 0.6 2.2 -1.1
v 0.7 1.5 -1.1
v 0.7 1.6 -1.1
v 0.7 1.8 -1.1
v 0.7 1.9 -1.1
v 0.7 2.1 -1.1
v 0.7 2.2 -1.1
v 0.8 1 -1.1
v 0.8 1.2 -1.1
v 0.9 1 -1.1
v 0.9 1.2 -1.1
v 1.1 1 -1.1
v 1.1 1.2 -1.1
v 1.2 1 -1.1
v 1.2 1.2 -1.1
v 1.3 1.5 -1.1
v 1.3 1.6 -1.1
v 1.3 1.8 -1.1
v 1.3 1.9 -1.1
v 1.4 1.8 -1.1
v 1.4 1.9 -1.1
v 1.6 1.5 -1.1
v 1.6 1.6 -1.1
v 0.6 2 -1.2
v 0.6 2.1 -1.2
v 0.7 1.3 -1.2
v 0.7 1.4 -1.2
v 0.7 1.6 -1.2
v 0.7 2 -1.2
v 0.7 2.1 -1.2
v 0.7 2.2 -1.2
v 0.7 2.3 -1.2
v 0.8 1.2 -1.2
v 0.8 1.3 -1.2
v 0.8 1.4 -1.2
v 0.8 2.2 -1.2
v 0.8 2.3 -1.2
v 0.8 2.4 -1.2
v 1.2 1.2 -1.2
v 1.2 1.3 -1.2
v 1.2 1.4 -1.2
v 1.2 2.2 -1.2
v 1.2 2.3 -1.2
v 1.2 2.4 -1.2
v 1.3 1.3 -1.2
v 1.3 1.4 -1.2
v 1.3 1.6 -1.2
v 1.3 2 -1.2
v 1.3 2.2 -1.2
v 1.3 2.3 -1.2
v 1.4 2 -1.2
v 1.4 2.2 -1.2
v 0.6 1.9 -1.3
v 0.6 2 -1.3
v 0.7 1.6 -1.3
v 0.7 1.8 -1.3
v 0.7 1.9 -1.3
v 0.7 2 -1.3
v 0.7 2.2 -1.3
v 0.8 1.3 -1.3
v 0.8 1.4 -1.3
v 0.8 1.7 -1.3
v 0.8 2.2 -1.3
v 0.8 2.3 -1.3
v 1.2 1.3 -1.3
v 1.2 1.4 -1.3
v 1.2 1.7 -1.3
v 1.2 2.2 -1.3
v 1.2 2.3 -1.3
v 1.3 1.6 -1.3
v 1.3 1.8 -1.3
v 1.3 1.9 -1.3
v 1.3 2 -1.3
v 1.3 2.2 -1.3
v 1.4 1.9 -1.3
v 1.4 2 -1.3
v 0.6 1.8 -1.4
v 0.6 1.9 -1.4
v 0.7 1.8 -1.4
v 0.7 1.9 -1.4
v 0.8 1.7 -1.4
v 0.8 2.2 -1.4
v 0.9 1.8 -1.4
v 0.9 2.1 -1.4
v 1.1 1.8 -1.4
v 1.1 2.1 -1.4
v 1.2 1.7 -1.4
v 1.2 2.2 -1.4
v 1.3 1.8 -1.4
v 1.3 1.9 -1.4
v 1.4 1.8 -1.4
v 1.4 1.9 -1.4
v 0.9 1.8 -1.5
v 0.9 2.1 -1.5
v 1.1 1.8 -1.5
v 1.1 2.1 -1.5
v 0.8 1 -1
v 0.9 1 -1
v 1.1 1 -1
v 1.2 1 -1
v 0.8 1 -1.1
v 0.9 1 -1.1
v 1.1 1 -1.1
v 1.2 1 -1.1
v 0.8 1.2 -0.9
v 1.2 1.2 -0.9
v 0.8 1.2 -1
v 0.9 1.2 -1
v 1.1 1.2 -1
v 1.2 1.2 -1
v 0.8 1.2 -1.1
v 0.9 1.2 -1.1
v 1.1 1.2 -1.1
v 1.2 1.2 -1.1
v 0.8 1.2 -1.2
v 1.2 1.2 -1.2
v 0.8 1.3 -0.8
v 1.2 1.3 -0.8
v 0.7 1.3 -0.9
v 0.8 1.3 -0.9
v 1.2 1.3 -0.9
v 1.3 1.3 -0.9
v 0.7 1.3 -1.2
v 0.8 1.3 -1.2
v 1.2 1.3 -1.2
v 1.3 1.3 -1.2
v 0.8 1.3 -1.3
v 1.2 1.3 -1.3
v 0.8 1.5 -0.8
v 0.9 1.5 -0.8
v 1.1 1.5 -0.8
v 1.2 1.5 -0.8
v 0.8 1.5 -0.9
v 0.9 1.5 -0.9
v 1.1 1.5 -0.9
v 1.2 1.5 -0.9
v 0.4 1.5 -1
v 0.7 1.5 -1
v 1.3 1.5 -1
v 1.6 1.5 -1
v 0.4 1.5 -1.1
v 0.7 1.5 -1.1
v 1.3 1.5 -1.1
v 1.6 1.5 -1.1
v 0.7 1.6 -0.8
v 0.8 1.6 -0.8
v 1.2 1.6 -0.8
v 1.3 1.6 -0.8
v 0.7 1.6 -0.9
v 0.8 1.6 -0.9
v 1.2 1.6 -0.9
v 1.3 1.6 -0.9
v 0.7 1.6 -1.2
v 1.3 1.6 -1.2
v 0.7 1.6 -1.3
v 1.3 1.6 -1.3
v 0.9 1.7 -0.8
v 1.1 1.7 -0.8
v 0.6 1.7 -0.9
v 0.7 1.7 -0.9
v 0.9 1.7 -0.9
v 1.1 1.7 -0.9
v 1.3 1.7 -0.9
v 1.4 1.7 -0.9
v 0.6 1.7 -1
v 0.7 1.7 -1
v 1.3 1.7 -1
v 1.4 1.7 -1
v 0.8 1.7 -1.3
v 1.2 1.7 -1.3
v 0.8 1.7 -1.4
v 1.2 1.7 -1.4
v 0.6 1.8 -1
v 0.7 1.8 -1
v 1.3 1.8 -1
v 1.4 1.8 -1
v 0.6 1.8 -1.1
v 0.7 1.8 -1.1
v 1.3 1.8 -1.1
v 1.4 1.8 -1.1
v 0.6 1.8 -1.2
v 0.7 1.8 -1.2
v 1.3 1.8 -1.2
v 1.4 1.8 -1.2
v 0.7 1.8 -1.3
v 1.3 1.8 -1.3
v 0.6 1.8 -1.4
v 0.7 1.8 -1.4
v 0.9 1.8 -1.4
v 1.1 1.8 -1.4
v 1.3 1.8 -1.4
v 1.4 1.8 -1.4
v 0.9 1.8 -1.5
v 1.1 1.8 -1.5
v 0.6 1.9 -0.9
v 0.7 1.9 -0.9
v 1.3 1.9 -0.9
v 1.4 1.9 -0.9
v 0.6 1.9 -1
v 0.7 1.9 -1
v 1.3 1.9 -1
v 1.4 1.9 -1
v 0.6 1.9 -1.1
v 0.7 1.9 -1.1
v 1.3 1.9 -1.1
v 1.4 1.9 -1.1
v 0.6 1.9 -1.2
v 0.7 1.9 -1.2
v 1.3 1.9 -1.2
v 1.4 1.9 -1.2
v 0.8 2 -0.8
v 1.2 2 -0.8
v 0.8 2 -0.9
v 1.2 2 -0.9
v 0.8 1.4 -0.8
v 1.2 1.4 -0.8
v 0.8 1.4 -0.9
v 1.2 1.4 -0.9
v 0.8 1.4 -1.2
v 1.2 1.4 -1.2
v 0.8 1.4 -1.3
v 1.2 1.4 -1.3
v 0.4 1.6 -1
v 0.7 1.6 -1
v 1.3 1.6 -1
v 1.6 1.6 -1
v 0.4 1.6 -1.1
v 0.7 1.6 -1.1
v 1.3 1.6 -1.1
v 1.6 1.6 -1.1
v 0.8 1.8 -0.8
v 1.2 1.8 -0.8
v 0.6 1.8 -0.9
v 0.7 1.8 -0.9
v 0.8 1.8 -0.9
v 0.9 1.8 -0.9
v 1.1 1.8 -0.9
v 1.2 1.8 -0.9
v 1.3 1.8 -0.9
v 1.4 1.8 -0.9
v 0.6 1.8 -1
v 0.7 1.8 -1
v 1.3 1.8 -1
v 1.4 1.8 -1
v 0.6 1.9 -1.3
v 0.7 1.9 -1.3
v 1.3 1.9 -1.3
v 1.4 1.9 -1.3
v 0.6 1.9 -1.4
v 0.7 1.9 -1.4
v 1.3 1.9 -1.4
v 1.4 1.9 -1.4
v 0.6 2 -1.2
v 0.7 2 -1.2
v 1.3 2 -1.2
v 1.4 2 -1.2
v 0.6 2 -1.3
v 0.7 2 -1.3
v 1.3 2 -1.3
v 1.4 2 -1.3
v 0.7 2.1 -0.8
v 0.8 2.1 -0.8
v 1.2 2.1 -0.8
v 1.3 2.1 -0.8
v 0.6 2.1 -0.9
v 0.7 2.1 -0.9
v 0.8 2.1 -0.9
v 1.2 2.1 -0.9
v 1.3 2.1 -0.9
v 1.4 2.1 -0.9
v 0.6 2.1 -1
v 0.7 2.1 -1
v 1.3 2.1 -1
v 1.4 2.1 -1
v 0.6 2.1 -1.1
v 0.7 2.1 -1.1
v 0.6 2.1 -1.2
v 0.7 2.1 -1.2
v 0.9 2.1 -1.4
v 1.1 2.1 -1.4
v 0.9 2.1 -1.5
v 1.1 2.1 -1.5
v 0.8 2.2 -0.8
v 1.2 2.2 -0.8
v 0.7 2.2 -0.9
v 0.8 2.2 -0.9
v 1.2 2.2 -0.9
v 1.3 2.2 -0.9
v 0.6 2.2 -1
v 0.7 2.2 -1
v 0.8 2.2 -1
v 1.2 2.2 -1
v 1.3 2.2 -1
v 1.4 2.2 -1
v 0.6 2.2 -1.1
v 0.7 2.2 -1.1
v 0.7 2.2 -1.2
v 0.8 2.2 -1.2
v 1.2 2.2 -1.2
v 1.3 2.2 -1.2
v 1.4 2.2 -1.2
v 0.7 2.2 -1.3
v 0.8 2.2 -1.3
v 1.2 2.2 -1.3
v 1.3 2.2 -1.3
v 0.8 2.2 -1.4
v 1.2 2.2 -1.4
v 0.8 2.3 -0.9
v 1.2 2.3 -0.9
v 0.7 2.3 -1
v 0.8 2.3 -1
v 1.2 2.3 -1
v 1.3 2.3 -1
v 0.7 2.3 -1.2
v 0.8 2.3 -1.2
v 1.2 2.3 -1.2
v 1.3 2.3 -1.2
v 0.8 2.3 -1.3
v 1.2 2.3 -1.3
v 0.8 2.4 -1
v 1.2 2.4 -1
v 0.8 2.4 -1.2
v 1.2 2.4 -1.2

# faces
f 3/3/1 2/3/1 1/3/1
f 4/3/1 2/3/1 3/3/1
f 7/2/1 6/2/1 5/2/1
f 8/2/1 6/2/1 7/2/1
f 13/3/1 9/3/1 8/3/1
f 14/3/1 9/3/1 13/3/1
f 15/2/1 11/2/1 10/2/1
f 16/2/1 11/2/1 15/2/1
f 17/2/1 11/2/1 16/2/1
f 18/2/1 14/2/1 13/2/1
f 18/2/1 13/2/1 12/2/1
f 18/2/1 16/2/1 15/2/1
f 18/2/1 15/2/1 14/2/1
f 19/2/1 16/2/1 18/2/1
f 20/2/1 18/2/1 12/2/1
f 21/2/1 18/2/1 20/2/1
f 22/2/1 18/2/1 21/2/1
f 23/2/1 18/2/1 22/2/1
f 24/2/1 22/2/1 21/2/1
f 25/2/1 22/2/1 24/2/1
f 28/5/1 27/5/1 26/5/1
f 29/5/1 27/5/1 28/5/1
f 30/3/1 29/3/1 28/3/1
f 31/3/1 29/3/1 30/3/1
f 33/3/1 30/3/1 28/3/1
f 34/3/1 30/3/1 33/3/1
f 35/3/1 29/3/1 31/3/1
f 36/3/1 29/3/1 35/3/1
f 38/2/1 34/2/1 33/2/1
f 38/2/1 33/2/1 32/2/1
f 39/3/1 35/3/1 34/3/1
f 39/2/1 34/2/1 38/2/1
f 40/2/1 38/2/1 32/2/1
f 41/3/1 35/3/1 39/3/1
f 42/2/1 36/2/1 35/2/1
f 42/2/1 37/2/1 36/2/1
f 42/3/1 35/3/1 41/3/1
f 43/2/1 37/2/1 42/2/1
f 44/2/1 37/2/1 43/2/1
f 45/2/1 41/2/1 40/2/1
f 45/2/1 40/2/1 32/2/1
f 46/2/1 41/2/1 45/2/1
f 47/2/1 43/2/1 42/2/1
f 48/2/1 43/2/1 47/2/1
f 51/2/1 45/2/1 32/2/1
f 52/2/1 45/2/1 51/2/1
f 55/2/1 50/2/1 49/2/1
f 56/2/1 53/2/1 52/2/1
f 57/2/1 53/2/1 56/2/1
f 58/2/1 55/2/1 54/2/1
f 59/2/1 50/2/1 55/2/1
f 59/2/1 55/2/1 58/2/1
f 60/2/1 50/2/1 59/2/1
f 61/2/1 58/2/1 57/2/1
f 61/2/1 59/2/1 58/2/1
f 62/2/1 59/2/1 61/2/1
f 66/3/1 64/3/1 63/3/1
f 67/3/1 64/3/1 66/3/1
f 70/5/1 66/5/1 65/5/1
f 70/5/1 68/5/1 67/5/1
f 70/5/1 67/5/1 66/5/1
f 71/5/1 68/5/1 70/5/1
f 73/5/1 70/5/1 69/5/1
f 74/5/1 70/5/1 73/5/1
f 75/5/1 72/5/1 71/5/1
f 76/5/1 72/5/1 75/5/1
f 79/2/1 78/2/1 77/2/1
f 80/2/1 78/2/1 79/2/1
f 85/2/1 84/2/1 83/2/1
f 86/2/1 84/2/1 85/2/1
f 89/2/1 82/2/1 81/2/1
f 90/2/1 82/2/1 89/2/1
f 91/2/1 87/2/1 86/2/1
f 92/2/1 87/2/1 91/2/1
f 93/2/1 89/2/1 88/2/1
f 94/2/1 89/2/1 93/2/1
f 95/2/1 93/2/1 92/2/1
f 96/2/1 93/2/1 95/2/1
f 99/2/1 98/2/1 97/2/1
f 100/2/1 98/2/1 99/2/1
f 103/3/1 102/3/1 101/3/1
f 104/3/1 102/3/1 103/3/1
f 107/2/1 106/2/1 105/2/1
f 108/2/1 107/2/1 105/2/1
f 109/2/1 107/2/1 108/2/1
f 112/2/1 111/2/1 110/2/1
f 113/2/1 112/2/1 110/2/1
f 114/2/1 112/2/1 113/2/1
f 117/2/1 116/2/1 115/2/1
f 118/2/1 116/2/1 117/2/1
f 119/2/2 120/2/2 121/2/2
f 121/2/2 120/2/2 122/2/2
f 123/2/2 124/2/2 125/2/2
f 123/2/2 125/2/2 126/2/2
f 126/2/2 125/2/2 127/2/2
f 128/3/2 129/3/2 130/3/2
f 130/3/2 129/3/2 131/3/2
f 132/2/2 133/2/2 134/2/2
f 132/2/2 134/2/2 135/2/2
f 135/2/2 134/2/2 136/2/2
f 137/2/2 138/2/2 139/2/2
f 139/2/2 138/2/2 140/2/2
f 141/3/2 142/3/2 144/3/2
f 144/3/2 142/3/2 145/3/2
f 143/5/2 144/5/2 148/5/2
f 145/5/2 146/5/2 148/5/2
f 144/5/2 145/5/2 148/5/2
f 148/5/2 146/5/2 149/5/2
f 147/5/2 148/5/2 151/5/2
f 151/5/2 148/5/2 152/5/2
f 149/5/2 150/5/2 153/5/2
f 153/5/2 150/5/2 154/5/2
f 155/2/2 156/2/2 157/2/2
f 157/2/2 156/2/2 158/2/2
f 161/2/2 162/2/2 163/2/2
f 163/2/2 162/2/2 164/2/2
f 159/2/2 160/2/2 167/2/2
f 167/2/2 160/2/2 168/2/2
f 164/2/2 165/2/2 169/2/2
f 169/2/2 165/2/2 170/2/2
f 166/2/2 167/2/2 171/2/2
f 171/2/2 167/2/2 172/2/2
f 170/2/2 171/2/2 173/2/2
f 173/2/2 171/2/2 174/2/2
f 175/5/2 176/5/2 177/5/2
f 177/5/2 176/5/2 178/5/2
f 177/3/2 178/3/2 179/3/2
f 179/3/2 178/3/2 180/3/2
f 177/3/2 179/3/2 182/3/2
f 182/3/2 179/3/2 183/3/2
f 180/3/2 178/3/2 184/3/2
f 184/3/2 178/3/2 185/3/2
f 182/2/2 183/2/2 187/2/2
f 181/2/2 182/2/2 187/2/2
f 183/3/2 184/3/2 188/3/2
f 187/2/2 183/2/2 188/2/2
f 181/2/2 187/2/2 189/2/2
f 188/3/2 184/3/2 190/3/2
f 184/2/2 185/2/2 191/2/2
f 185/2/2 186/2/2 191/2/2
f 190/3/2 184/3/2 191/3/2
f 191/2/2 186/2/2 192/2/2
f 192/2/2 186/2/2 193/2/2
f 189/2/2 190/2/2 194/2/2
f 181/2/2 189/2/2 194/2/2
f 194/2/2 190/2/2 195/2/2
f 191/2/2 192/2/2 196/2/2
f 196/2/2 192/2/2 197/2/2
f 181/2/2 194/2/2 200/2/2
f 200/2/2 194/2/2 201/2/2
f 201/2/2 202/2/2 203/2/2
f 203/2/2 202/2/2 204/2/2
f 198/2/2 199/2/2 205/2/2
f 205/2/2 199/2/2 206/2/2
f 204/2/2 205/2/2 207/2/2
f 207/2/2 205/2/2 208/2/2
f 209/2/2 210/2/2 211/2/2
f 211/2/2 210/2/2 212/2/2
f 212/3/2 213/3/2 217/3/2
f 217/3/2 213/3/2 218/3/2
f 214/2/2 215/2/2 219/2/2
f 219/2/2 215/2/2 220/2/2
f 220/2/2 215/2/2 221/2/2
f 217/2/2 218/2/2 222/2/2
f 216/2/2 217/2/2 222/2/2
f 219/2/2 220/2/2 222/2/2
f 218/2/2 219/2/2 222/2/2
f 222/2/2 220/2/2 223/2/2
f 216/2/2 222/2/2 224/2/2
f 224/2/2 222/2/2 225/2/2
f 225/2/2 222/2/2 226/2/2
f 226/2/2 222/2/2 227/2/2
f 228/3/2 229/3/2 230/3/2
f 230/3/2 229/3/2 231/3/2
f 237/2/3 233/2/3 232/2/3
f 238/2/3 233/2/3 237/2/3
f 239/2/3 233/2/3 238/2/3
f 240/2/3 233/2/3 239/2/3
f 242/2/3 237/2/3 236/2/3
f 242/2/3 238/2/3 237/2/3
f 243/2/3 238/2/3 242/2/3
f 245/2/3 238/2/3 243/2/3
f 246/5/3 235/5/3 234/5/3
f 247/5/3 235/5/3 246/5/3
f 248/2/3 245/2/3 244/2/3
f 249/2/3 245/2/3 248/2/3
f 250/2/3 238/2/3 245/2/3
f 250/2/3 245/2/3 249/2/3
f 251/2/3 241/2/3 240/2/3
f 251/2/3 240/2/3 239/2/3
f 252/2/3 241/2/3 251/2/3
f 253/2/3 241/2/3 252/2/3
f 254/2/3 250/2/3 249/2/3
f 254/2/3 252/2/3 251/2/3
f 254/2/3 251/2/3 250/2/3
f 255/2/3 252/2/3 254/2/3
f 263/2/3 257/2/3 256/2/3
f 264/2/3 257/2/3 263/2/3
f 265/2/3 259/2/3 258/2/3
f 266/2/3 259/2/3 265/2/3
f 269/5/3 261/5/3 260/5/3
f 270/3/3 262/3/3 261/3/3
f 270/5/3 261/5/3 269/5/3
f 271/3/3 262/3/3 270/3/3
f 272/3/3 262/3/3 271/3/3
f 276/2/3 267/2/3 266/2/3
f 277/2/3 267/2/3 276/2/3
f 279/3/3 271/3/3 270/3/3
f 282/7/3 274/7/3 273/7/3
f 283/2/3 275/2/3 274/2/3
f 283/7/3 274/7/3 282/7/3
f 284/3/3 279/3/3 270/3/3
f 284/3/3 280/3/3 279/3/3
f 285/6/3 281/6/3 280/6/3
f 285/3/3 280/3/3 284/3/3
f 286/6/3 281/6/3 285/6/3
f 287/1/3 283/1/3 282/1/3
f 288/2/3 275/2/3 283/2/3
f 288/1/3 283/1/3 287/1/3
f 289/5/3 269/5/3 268/5/3
f 290/5/3 269/5/3 289/5/3
f 291/3/3 284/3/3 270/3/3
f 292/3/3 284/3/3 291/3/3
f 294/7/3 288/7/3 287/7/3
f 295/2/3 275/2/3 288/2/3
f 295/7/3 288/7/3 294/7/3
f 296/2/3 275/2/3 295/2/3
f 298/2/3 278/2/3 277/2/3
f 299/2/3 278/2/3 298/2/3
f 300/5/3 291/5/3 290/5/3
f 301/3/3 293/3/3 292/3/3
f 301/5/3 291/5/3 300/5/3
f 301/3/3 292/3/3 291/3/3
f 302/3/3 293/3/3 301/3/3
f 306/2/3 298/2/3 297/2/3
f 307/2/3 298/2/3 306/2/3
f 308/2/3 304/2/3 303/2/3
f 309/2/3 304/2/3 308/2/3
f 310/2/3 306/2/3 305/2/3
f 311/2/3 306/2/3 310/2/3
f 318/3/3 313/3/3 312/3/3
f 319/3/3 313/3/3 318/3/3
f 320/3/3 315/3/3 314/3/3
f 321/3/3 315/3/3 320/3/3
f 322/2/3 317/2/3 316/2/3
f 323/2/3 317/2/3 322/2/3
f 327/2/3 324/2/3 323/2/3
f 328/2/3 324/2/3 327/2/3
f 330/3/3 326/3/3 325/3/3
f 331/3/3 326/3/3 330/3/3
f 334/3/3 333/3/3 332/3/3
f 335/3/3 333/3/3 334/3/3
f 337/2/3 329/2/3 328/2/3
f 338/2/3 329/2/3 337/2/3
f 344/2/3 337/2/3 336/2/3
f 345/2/3 337/2/3 344/2/3
f 346/3/3 342/3/3 341/3/3
f 347/3/3 342/3/3 346/3/3
f 348/2/3 344/2/3 343/2/3
f 349/2/3 344/2/3 348/2/3
f 350/3/3 340/3/3 339/3/3
f 351/3/3 340/3/3 350/3/3
f 354/2/3 353/2/3 352/2/3
f 355/2/3 353/2/3 354/2/3
f 358/2/3 357/2/3 356/2/3
f 359/2/3 357/2/3 358/2/3
f 360/2/4 361/2/4 362/2/4
f 362/2/4 361/2/4 363/2/4
f 364/2/4 365/2/4 366/2/4
f 366/2/4 365/2/4 367/2/4
f 368/3/4 369/3/4 374/3/4
f 374/3/4 369/3/4 375/3/4
f 370/3/4 371/3/4 376/3/4
f 376/3/4 371/3/4 377/3/4
f 372/2/4 373/2/4 378/2/4
f 378/2/4 373/2/4 379/2/4
f 380/3/4 381/3/4 382/3/4
f 382/3/4 381/3/4 383/3/4
f 384/3/4 385/3/4 386/3/4
f 386/3/4 385/3/4 387/3/4
f 390/3/4 391/3/4 392/3/4
f 392/3/4 391/3/4 393/3/4
f 388/3/4 389/3/4 394/3/4
f 394/3/4 389/3/4 395/3/4
f 396/2/4 397/2/4 401/2/4
f 401/2/4 397/2/4 402/2/4
f 398/5/4 399/5/4 406/5/4
f 399/3/4 400/3/4 407/3/4
f 406/5/4 399/5/4 407/5/4
f 403/2/4 404/2/4 408/2/4
f 408/2/4 404/2/4 409/2/4
f 405/5/4 406/5/4 411/5/4
f 411/5/4 406/5/4 412/5/4
f 407/3/4 400/3/4 413/3/4
f 409/2/4 410/2/4 415/2/4
f 415/2/4 410/2/4 416/2/4
f 412/5/4 413/5/4 417/5/4
f 413/3/4 400/3/4 418/3/4
f 417/5/4 413/5/4 418/5/4
f 418/3/4 400/3/4 419/3/4
f 414/2/4 415/2/4 421/2/4
f 421/2/4 415/2/4 422/2/4
f 420/2/4 421/2/4 423/2/4
f 423/2/4 421/2/4 424/2/4
f 425/2/4 426/2/4 429/2/4
f 429/2/4 426/2/4 430/2/4
f 427/2/4 428/2/4 434/2/4
f 428/2/4 429/2/4 434/2/4
f 430/2/4 431/2/4 434/2/4
f 429/2/4 430/2/4 434/2/4
f 434/2/4 431/2/4 435/2/4
f 432/5/4 433/5/4 437/5/4
f 437/5/4 433/5/4 438/5/4
f 427/2/4 434/2/4 439/2/4
f 435/2/4 436/2/4 440/2/4
f 440/2/4 436/2/4 441/2/4
f 427/2/4 439/2/4 442/2/4
f 439/2/4 440/2/4 442/2/4
f 442/2/4 440/2/4 443/2/4
f 443/2/4 440/2/4 444/2/4
f 444/2/4 440/2/4 445/2/4
f 445/2/4 440/2/4 446/2/4
f 444/2/4 445/2/4 447/2/4
f 447/2/4 445/2/4 448/2/4
f 449/2/4 450/2/4 451/2/4
f 451/2/4 450/2/4 452/2/4
f 453/2/4 454/2/4 455/2/4
f 455/2/4 454/2/4 456/2/4
f 453/2/4 455/2/4 457/2/4
f 456/2/4 454/2/4 458/2/4
f 453/2/4 457/2/4 459/2/4
f 457/2/4 458/2/4 459/2/4
f 458/2/4 454/2/4 460/2/4
f 459/2/4 458/2/4 460/2/4
f 461/2/4 462/2/4 463/2/4
f 463/2/4 462/2/4 464/2/4
f 465/2/4 466/2/4 467/2/4
f 467/2/4 466/2/4 468/2/4
f 473/3/5 470/3/5 469/3/5
f 474/3/5 470/3/5 473/3/5
f 475/3/5 472/3/5 471/3/5
f 476/3/5 472/3/5 475/3/5
f 479/5/5 478/5/5 477/5/5
f 480/5/5 478/5/5 479/5/5
f 481/5/5 478/5/5 480/5/5
f 482/5/5 478/5/5 481/5/5
f 484/5/5 481/5/5 480/5/5
f 485/5/5 481/5/5 484/5/5
f 487/5/5 484/5/5 483/5/5
f 487/5/5 486/5/5 485/5/5
f 487/5/5 485/5/5 484/5/5
f 488/5/5 486/5/5 487/5/5
f 492/5/5 490/5/5 489/5/5
f 493/5/5 490/5/5 492/5/5
f 495/5/5 492/5/5 491/5/5
f 496/5/5 492/5/5 495/5/5
f 497/5/5 494/5/5 493/5/5
f 498/5/5 494/5/5 497/5/5
f 499/5/5 497/5/5 496/5/5
f 500/5/5 497/5/5 499/5/5
f 505/2/5 502/2/5 501/2/5
f 506/2/5 502/2/5 505/2/5
f 507/2/5 504/2/5 503/2/5
f 508/2/5 504/2/5 507/2/5
f 513/3/5 510/3/5 509/3/5
f 514/3/5 510/3/5 513/3/5
f 515/3/5 512/3/5 511/3/5
f 516/3/5 512/3/5 515/3/5
f 521/2/5 518/2/5 517/2/5
f 522/2/5 518/2/5 521/2/5
f 523/2/5 520/2/5 519/2/5
f 524/2/5 520/2/5 523/2/5
f 527/2/5 526/2/5 525/2/5
f 528/2/5 526/2/5 527/2/5
f 533/2/5 530/2/5 529/2/5
f 534/2/5 530/2/5 533/2/5
f 537/2/5 532/2/5 531/2/5
f 538/2/5 532/2/5 537/2/5
f 539/2/5 536/2/5 535/2/5
f 540/2/5 536/2/5 539/2/5
f 543/2/5 542/2/5 541/2/5
f 544/2/5 542/2/5 543/2/5
f 549/3/5 546/3/5 545/3/5
f 550/3/5 546/3/5 549/3/5
f 551/3/5 548/3/5 547/3/5
f 552/3/5 548/3/5 551/3/5
f 557/2/5 554/2/5 553/2/5
f 558/2/5 556/2/5 555/2/5
f 559/2/5 557/2/5 553/2/5
f 560/2/5 557/2/5 559/2/5
f 563/2/5 556/2/5 558/2/5
f 564/2/5 556/2/5 563/2/5
f 565/2/5 562/2/5 561/2/5
f 566/2/5 562/2/5 565/2/5
f 571/2/5 568/2/5 567/2/5
f 572/2/5 568/2/5 571/2/5
f 573/2/5 570/2/5 569/2/5
f 574/2/5 570/2/5 573/2/5
f 579/2/5 576/2/5 575/2/5
f 580/2/5 576/2/5 579/2/5
f 581/2/5 578/2/5 577/2/5
f 582/2/5 578/2/5 581/2/5
f 585/2/5 584/2/5 583/2/5
f 586/2/5 584/2/5 585/2/5
f 587/5/6 588/5/6 589/5/6
f 589/5/6 588/5/6 590/5/6
f 591/5/6 592/5/6 593/5/6
f 593/5/6 592/5/6 594/5/6
f 595/3/6 596/3/6 599/3/6
f 599/3/6 596/3/6 600/3/6
f 597/3/6 598/3/6 601/3/6
f 601/3/6 598/3/6 602/3/6
f 603/2/6 604/2/6 607/2/6
f 607/2/6 604/2/6 608/2/6
f 608/2/6 604/2/6 609/2/6
f 609/2/6 604/2/6 610/2/6
f 605/2/6 606/2/6 613/2/6
f 613/2/6 606/2/6 614/2/6
f 611/2/6 612/2/6 615/2/6
f 615/2/6 612/2/6 616/2/6
f 617/2/6 618/2/6 621/2/6
f 621/2/6 618/2/6 622/2/6
f 619/2/6 620/2/6 623/2/6
f 623/2/6 620/2/6 624/2/6
f 625/2/6 626/2/6 629/2/6
f 629/2/6 626/2/6 630/2/6
f 627/2/6 628/2/6 631/2/6
f 631/2/6 628/2/6 632/2/6
f 633/2/6 634/2/6 638/2/6
f 638/2/6 634/2/6 639/2/6
f 635/2/6 636/2/6 640/2/6
f 640/2/6 636/2/6 641/2/6
f 637/2/6 638/2/6 643/2/6
f 643/2/6 638/2/6 644/2/6
f 641/2/6 642/2/6 645/2/6
f 645/2/6 642/2/6 646/2/6
f 647/2/6 648/2/6 649/2/6
f 649/2/6 648/2/6 650/2/6
f 651/2/6 652/2/6 653/2/6
f 653/2/6 652/2/6 654/2/6
f 655/2/6 656/2/6 658/2/6
f 658/2/6 656/2/6 659/2/6
f 657/2/6 658/2/6 662/2/6
f 662/2/6 658/2/6 663/2/6
f 659/2/6 660/2/6 664/2/6
f 664/2/6 660/2/6 665/2/6
f 661/2/6 662/2/6 667/2/6
f 667/2/6 662/2/6 668/2/6
f 665/2/6 666/2/6 672/2/6
f 672/2/6 666/2/6 673/2/6
f 669/2/6 670/2/6 674/2/6
f 674/2/6 670/2/6 675/2/6
f 671/2/6 672/2/6 676/2/6
f 676/2/6 672/2/6 677/2/6
f 675/2/6 676/2/6 678/2/6
f 678/2/6 676/2/6 679/2/6
f 680/2/6 681/2/6 683/2/6
f 683/2/6 681/2/6 684/2/6
f 682/2/6 683/2/6 686/2/6
f 686/2/6 683/2/6 687/2/6
f 684/2/6 685/2/6 688/2/6
f 688/2/6 685/2/6 689/2/6
f 687/2/6 688/2/6 690/2/6
f 690/2/6 688/2/6 691/2/6
f 692/2/6 693/2/6 694/2/6
f 694/2/6 693/2/6 695/2/6
